<svg xmlns="http://www.w3.org/2000/svg" viewBox="0 0 1024 1024" role="img" aria-label="Helmhost">
  <!-- Mark-only: previous shield layout + clearer wheel; transparent outside plate. -->
  <rect width="1024" height="1024" rx="228" fill="#11192D"/>
  <path fill="#3B485E" d="
    M512 145
    C660 145 770 190 812 245
    L812 470
    C812 650 670 800 512 890
    C354 800 212 650 212 470
    L212 245
    C254 190 364 145 512 145 Z"/>
  <g transform="translate(512,440)">
    <g fill="#F4F6FA">
      <rect x="-14" y="-240" width="28" height="54" rx="14"/>
      <rect x="-14" y="186" width="28" height="54" rx="14"/>
      <rect x="-240" y="-14" width="54" height="28" rx="14"/>
      <rect x="186" y="-14" width="54" height="28" rx="14"/>
      <g transform="rotate(45)"><rect x="-12" y="-226" width="24" height="46" rx="12"/></g>
      <g transform="rotate(135)"><rect x="-12" y="-226" width="24" height="46" rx="12"/></g>
      <g transform="rotate(225)"><rect x="-12" y="-226" width="24" height="46" rx="12"/></g>
      <g transform="rotate(315)"><rect x="-12" y="-226" width="24" height="46" rx="12"/></g>
    </g>
    <g fill="none" stroke="#F4F6FA" stroke-linecap="round" stroke-linejoin="round">
      <circle r="178" stroke-width="34"/>
      <circle r="56" stroke-width="24"/>
      <g stroke-width="22">
        <line x1="0" y1="-56" x2="0" y2="-164"/>
        <line x1="0" y1="56" x2="0" y2="164"/>
        <line x1="-56" y1="0" x2="-164" y2="0"/>
        <line x1="56" y1="0" x2="164" y2="0"/>
        <line x1="-40" y1="-40" x2="-116" y2="-116"/>
        <line x1="40" y1="40" x2="116" y2="116"/>
        <line x1="40" y1="-40" x2="116" y2="-116"/>
        <line x1="-40" y1="40" x2="-116" y2="116"/>
      </g>
    </g>
    <circle r="26" fill="#F4F6FA"/>
  </g>
</svg>
